<?xml version="1.0" encoding="UTF-8" standalone="no"?>
<!DOCTYPE svg PUBLIC "-//W3C//DTD SVG 1.1//EN"
 "http://www.w3.org/Graphics/SVG/1.1/DTD/svg11.dtd">
<!-- Generated by graphviz version 2.50.0 (20220206.1658)
 -->
<!-- Title: g Pages: 1 -->
<svg width="460pt" height="843pt"
 viewBox="0.00 0.00 460.44 843.20" xmlns="http://www.w3.org/2000/svg" xmlns:xlink="http://www.w3.org/1999/xlink">
<g id="graph0" class="graph" transform="scale(1 1) rotate(0) translate(4 839.2)">
<title>g</title>
<polygon fill="white" stroke="transparent" points="-4,4 -4,-839.2 456.44,-839.2 456.44,4 -4,4"/>
<!-- testLogicReset -->
<g id="node1" class="node">
<title>testLogicReset</title>
<path fill="none" stroke="black" d="M315.7,-835.2C315.7,-835.2 240.3,-835.2 240.3,-835.2 234.3,-835.2 228.3,-829.2 228.3,-823.2 228.3,-823.2 228.3,-811.2 228.3,-811.2 228.3,-805.2 234.3,-799.2 240.3,-799.2 240.3,-799.2 315.7,-799.2 315.7,-799.2 321.7,-799.2 327.7,-805.2 327.7,-811.2 327.7,-811.2 327.7,-823.2 327.7,-823.2 327.7,-829.2 321.7,-835.2 315.7,-835.2"/>
<text text-anchor="middle" x="278" y="-813" font-family="Times,serif" font-size="14.00">testLogicReset</text>
</g>
<!-- runTest -->
<g id="node2" class="node">
<title>runTest</title>
<path fill="none" stroke="black" d="M245.27,-746.4C245.27,-746.4 210.73,-746.4 210.73,-746.4 204.73,-746.4 198.73,-740.4 198.73,-734.4 198.73,-734.4 198.73,-722.4 198.73,-722.4 198.73,-716.4 204.73,-710.4 210.73,-710.4 210.73,-710.4 245.27,-710.4 245.27,-710.4 251.27,-710.4 257.27,-716.4 257.27,-722.4 257.27,-722.4 257.27,-734.4 257.27,-734.4 257.27,-740.4 251.27,-746.4 245.27,-746.4"/>
<text text-anchor="middle" x="228" y="-724.2" font-family="Times,serif" font-size="14.00">runTest</text>
</g>
<!-- testLogicReset&#45;&gt;runTest -->
<g id="edge1" class="edge">
<title>testLogicReset&#45;&gt;runTest</title>
<path fill="none" stroke="black" d="M268.12,-799.05C260.93,-786.57 251.07,-769.44 242.92,-755.3"/>
<polygon fill="black" stroke="black" points="245.88,-753.43 237.86,-746.51 239.82,-756.93 245.88,-753.43"/>
<text text-anchor="middle" x="261.5" y="-768.6" font-family="Times,serif" font-size="14.00">0</text>
</g>
<!-- selectDR -->
<g id="node3" class="node">
<title>selectDR</title>
<path fill="none" stroke="black" d="M217.82,-657.6C217.82,-657.6 174.18,-657.6 174.18,-657.6 168.18,-657.6 162.18,-651.6 162.18,-645.6 162.18,-645.6 162.18,-633.6 162.18,-633.6 162.18,-627.6 168.18,-621.6 174.18,-621.6 174.18,-621.6 217.82,-621.6 217.82,-621.6 223.82,-621.6 229.82,-627.6 229.82,-633.6 229.82,-633.6 229.82,-645.6 229.82,-645.6 229.82,-651.6 223.82,-657.6 217.82,-657.6"/>
<text text-anchor="middle" x="196" y="-635.4" font-family="Times,serif" font-size="14.00">selectDR</text>
</g>
<!-- runTest&#45;&gt;selectDR -->
<g id="edge14" class="edge">
<title>runTest&#45;&gt;selectDR</title>
<path fill="none" stroke="black" d="M221.68,-710.25C217.16,-698.01 211,-681.29 205.85,-667.31"/>
<polygon fill="black" stroke="black" points="209.05,-665.89 202.31,-657.71 202.48,-668.31 209.05,-665.89"/>
<text text-anchor="middle" x="218.5" y="-679.8" font-family="Times,serif" font-size="14.00">1</text>
</g>
<!-- captureDR -->
<g id="node4" class="node">
<title>captureDR</title>
<path fill="none" stroke="black" d="M168.14,-568.8C168.14,-568.8 115.86,-568.8 115.86,-568.8 109.86,-568.8 103.86,-562.8 103.86,-556.8 103.86,-556.8 103.86,-544.8 103.86,-544.8 103.86,-538.8 109.86,-532.8 115.86,-532.8 115.86,-532.8 168.14,-532.8 168.14,-532.8 174.14,-532.8 180.14,-538.8 180.14,-544.8 180.14,-544.8 180.14,-556.8 180.14,-556.8 180.14,-562.8 174.14,-568.8 168.14,-568.8"/>
<text text-anchor="middle" x="142" y="-546.6" font-family="Times,serif" font-size="14.00">captureDR</text>
</g>
<!-- selectDR&#45;&gt;captureDR -->
<g id="edge2" class="edge">
<title>selectDR&#45;&gt;captureDR</title>
<path fill="none" stroke="black" d="M185.33,-621.45C177.57,-608.97 166.91,-591.84 158.11,-577.7"/>
<polygon fill="black" stroke="black" points="160.9,-575.56 152.65,-568.91 154.96,-579.25 160.9,-575.56"/>
<text text-anchor="middle" x="177.5" y="-591" font-family="Times,serif" font-size="14.00">0</text>
</g>
<!-- selectIR -->
<g id="node10" class="node">
<title>selectIR</title>
<path fill="none" stroke="black" d="M331.87,-568.8C331.87,-568.8 294.13,-568.8 294.13,-568.8 288.13,-568.8 282.13,-562.8 282.13,-556.8 282.13,-556.8 282.13,-544.8 282.13,-544.8 282.13,-538.8 288.13,-532.8 294.13,-532.8 294.13,-532.8 331.87,-532.8 331.87,-532.8 337.87,-532.8 343.87,-538.8 343.87,-544.8 343.87,-544.8 343.87,-556.8 343.87,-556.8 343.87,-562.8 337.87,-568.8 331.87,-568.8"/>
<text text-anchor="middle" x="313" y="-546.6" font-family="Times,serif" font-size="14.00">selectIR</text>
</g>
<!-- selectDR&#45;&gt;selectIR -->
<g id="edge15" class="edge">
<title>selectDR&#45;&gt;selectIR</title>
<path fill="none" stroke="black" d="M219.12,-621.45C237.06,-608.14 262.13,-589.54 281.85,-574.91"/>
<polygon fill="black" stroke="black" points="283.99,-577.68 289.93,-568.91 279.82,-572.06 283.99,-577.68"/>
<text text-anchor="middle" x="268.5" y="-591" font-family="Times,serif" font-size="14.00">1</text>
</g>
<!-- shiftDR -->
<g id="node5" class="node">
<title>shiftDR</title>
<path fill="none" stroke="black" d="M168.34,-480C168.34,-480 131.66,-480 131.66,-480 125.66,-480 119.66,-474 119.66,-468 119.66,-468 119.66,-456 119.66,-456 119.66,-450 125.66,-444 131.66,-444 131.66,-444 168.34,-444 168.34,-444 174.34,-444 180.34,-450 180.34,-456 180.34,-456 180.34,-468 180.34,-468 180.34,-474 174.34,-480 168.34,-480"/>
<text text-anchor="middle" x="150" y="-457.8" font-family="Times,serif" font-size="14.00">shiftDR</text>
</g>
<!-- captureDR&#45;&gt;shiftDR -->
<g id="edge3" class="edge">
<title>captureDR&#45;&gt;shiftDR</title>
<path fill="none" stroke="black" d="M143.58,-532.65C144.7,-520.52 146.22,-504.02 147.5,-490.12"/>
<polygon fill="black" stroke="black" points="150.99,-490.39 148.42,-480.11 144.02,-489.75 150.99,-490.39"/>
<text text-anchor="middle" x="150.5" y="-502.2" font-family="Times,serif" font-size="14.00">0</text>
</g>
<!-- exit1DR -->
<g id="node6" class="node">
<title>exit1DR</title>
<path fill="none" stroke="black" d="M116.94,-391.2C116.94,-391.2 77.06,-391.2 77.06,-391.2 71.06,-391.2 65.06,-385.2 65.06,-379.2 65.06,-379.2 65.06,-367.2 65.06,-367.2 65.06,-361.2 71.06,-355.2 77.06,-355.2 77.06,-355.2 116.94,-355.2 116.94,-355.2 122.94,-355.2 128.94,-361.2 128.94,-367.2 128.94,-367.2 128.94,-379.2 128.94,-379.2 128.94,-385.2 122.94,-391.2 116.94,-391.2"/>
<text text-anchor="middle" x="97" y="-369" font-family="Times,serif" font-size="14.00">exit1DR</text>
</g>
<!-- captureDR&#45;&gt;exit1DR -->
<g id="edge17" class="edge">
<title>captureDR&#45;&gt;exit1DR</title>
<path fill="none" stroke="black" d="M129.91,-532.65C121.02,-519.06 109.57,-499.21 104,-480 96.5,-454.14 95.28,-423.29 95.62,-401.59"/>
<polygon fill="black" stroke="black" points="99.12,-401.54 95.9,-391.45 92.13,-401.35 99.12,-401.54"/>
<text text-anchor="middle" x="107.5" y="-457.8" font-family="Times,serif" font-size="14.00">1</text>
</g>
<!-- shiftDR&#45;&gt;exit1DR -->
<g id="edge4" class="edge">
<title>shiftDR&#45;&gt;exit1DR</title>
<path fill="none" stroke="black" d="M139.53,-443.85C131.91,-431.37 121.45,-414.24 112.81,-400.1"/>
<polygon fill="black" stroke="black" points="115.65,-398.02 107.45,-391.31 109.67,-401.67 115.65,-398.02"/>
<text text-anchor="middle" x="132.5" y="-413.4" font-family="Times,serif" font-size="14.00">1</text>
</g>
<!-- pauseDR -->
<g id="node7" class="node">
<title>pauseDR</title>
<path fill="none" stroke="black" d="M121.83,-302.4C121.83,-302.4 78.17,-302.4 78.17,-302.4 72.17,-302.4 66.17,-296.4 66.17,-290.4 66.17,-290.4 66.17,-278.4 66.17,-278.4 66.17,-272.4 72.17,-266.4 78.17,-266.4 78.17,-266.4 121.83,-266.4 121.83,-266.4 127.83,-266.4 133.83,-272.4 133.83,-278.4 133.83,-278.4 133.83,-290.4 133.83,-290.4 133.83,-296.4 127.83,-302.4 121.83,-302.4"/>
<text text-anchor="middle" x="100" y="-280.2" font-family="Times,serif" font-size="14.00">pauseDR</text>
</g>
<!-- exit1DR&#45;&gt;pauseDR -->
<g id="edge5" class="edge">
<title>exit1DR&#45;&gt;pauseDR</title>
<path fill="none" stroke="black" d="M97.59,-355.05C98.01,-342.92 98.58,-326.42 99.06,-312.52"/>
<polygon fill="black" stroke="black" points="102.56,-312.63 99.41,-302.51 95.57,-312.39 102.56,-312.63"/>
<text text-anchor="middle" x="102.5" y="-324.6" font-family="Times,serif" font-size="14.00">0</text>
</g>
<!-- updateDR -->
<g id="node9" class="node">
<title>updateDR</title>
<path fill="none" stroke="black" d="M211.27,-124.8C211.27,-124.8 162.73,-124.8 162.73,-124.8 156.73,-124.8 150.73,-118.8 150.73,-112.8 150.73,-112.8 150.73,-100.8 150.73,-100.8 150.73,-94.8 156.73,-88.8 162.73,-88.8 162.73,-88.8 211.27,-88.8 211.27,-88.8 217.27,-88.8 223.27,-94.8 223.27,-100.8 223.27,-100.8 223.27,-112.8 223.27,-112.8 223.27,-118.8 217.27,-124.8 211.27,-124.8"/>
<text text-anchor="middle" x="187" y="-102.6" font-family="Times,serif" font-size="14.00">updateDR</text>
</g>
<!-- exit1DR&#45;&gt;updateDR -->
<g id="edge18" class="edge">
<title>exit1DR&#45;&gt;updateDR</title>
<path fill="none" stroke="black" d="M83.7,-354.97C74.18,-341.49 62.17,-321.84 57,-302.4 52.88,-286.94 52.94,-281.88 57,-266.4 68.49,-222.59 78.41,-212.73 107,-177.6 121.07,-160.31 139.7,-143.78 155.44,-131.15"/>
<polygon fill="black" stroke="black" points="157.67,-133.85 163.36,-124.92 153.34,-128.35 157.67,-133.85"/>
<text text-anchor="middle" x="72.5" y="-235.8" font-family="Times,serif" font-size="14.00">1</text>
</g>
<!-- exit2DR -->
<g id="node8" class="node">
<title>exit2DR</title>
<path fill="none" stroke="black" d="M167.94,-213.6C167.94,-213.6 128.06,-213.6 128.06,-213.6 122.06,-213.6 116.06,-207.6 116.06,-201.6 116.06,-201.6 116.06,-189.6 116.06,-189.6 116.06,-183.6 122.06,-177.6 128.06,-177.6 128.06,-177.6 167.94,-177.6 167.94,-177.6 173.94,-177.6 179.94,-183.6 179.94,-189.6 179.94,-189.6 179.94,-201.6 179.94,-201.6 179.94,-207.6 173.94,-213.6 167.94,-213.6"/>
<text text-anchor="middle" x="148" y="-191.4" font-family="Times,serif" font-size="14.00">exit2DR</text>
</g>
<!-- pauseDR&#45;&gt;exit2DR -->
<g id="edge6" class="edge">
<title>pauseDR&#45;&gt;exit2DR</title>
<path fill="none" stroke="black" d="M109.48,-266.25C116.39,-253.77 125.86,-236.64 133.68,-222.5"/>
<polygon fill="black" stroke="black" points="136.76,-224.16 138.54,-213.71 130.63,-220.77 136.76,-224.16"/>
<text text-anchor="middle" x="132.5" y="-235.8" font-family="Times,serif" font-size="14.00">1</text>
</g>
<!-- exit2DR&#45;&gt;shiftDR -->
<g id="edge19" class="edge">
<title>exit2DR&#45;&gt;shiftDR</title>
<path fill="none" stroke="black" d="M148.13,-213.67C148.47,-258.28 149.38,-378.68 149.79,-433.34"/>
<polygon fill="black" stroke="black" points="146.29,-433.68 149.87,-443.65 153.29,-433.63 146.29,-433.68"/>
<text text-anchor="middle" x="153.5" y="-324.6" font-family="Times,serif" font-size="14.00">0</text>
</g>
<!-- exit2DR&#45;&gt;updateDR -->
<g id="edge7" class="edge">
<title>exit2DR&#45;&gt;updateDR</title>
<path fill="none" stroke="black" d="M155.71,-177.45C161.26,-165.09 168.86,-148.17 175.18,-134.1"/>
<polygon fill="black" stroke="black" points="178.4,-135.47 179.31,-124.91 172.02,-132.6 178.4,-135.47"/>
<text text-anchor="middle" x="174.5" y="-147" font-family="Times,serif" font-size="14.00">1</text>
</g>
<!-- updateDR&#45;&gt;runTest -->
<g id="edge20" class="edge">
<title>updateDR&#45;&gt;runTest</title>
<path fill="none" stroke="black" d="M211.19,-124.81C230.38,-140.49 254,-165.66 254,-194.6 254,-507.4 254,-507.4 254,-507.4 254,-577.45 240.84,-659.19 233.24,-700.52"/>
<polygon fill="black" stroke="black" points="229.8,-699.89 231.4,-710.37 236.68,-701.18 229.8,-699.89"/>
<text text-anchor="middle" x="257.5" y="-413.4" font-family="Times,serif" font-size="14.00">0</text>
</g>
<!-- updateDR&#45;&gt;selectDR -->
<g id="edge21" class="edge">
<title>updateDR&#45;&gt;selectDR</title>
<path fill="none" stroke="black" d="M193.76,-125.12C199.9,-142.43 208,-169.95 208,-194.6 208,-507.4 208,-507.4 208,-507.4 208,-543.38 203.47,-584.69 199.97,-611.19"/>
<polygon fill="black" stroke="black" points="196.49,-610.86 198.6,-621.24 203.42,-611.81 196.49,-610.86"/>
<text text-anchor="middle" x="211.5" y="-369" font-family="Times,serif" font-size="14.00">1</text>
</g>
<!-- selectIR&#45;&gt;testLogicReset -->
<g id="edge16" class="edge">
<title>selectIR&#45;&gt;testLogicReset</title>
<path fill="none" stroke="black" d="M310.74,-568.87C304.82,-613.57 288.83,-734.38 281.62,-788.88"/>
<polygon fill="black" stroke="black" points="278.14,-788.48 280.3,-798.85 285.08,-789.4 278.14,-788.48"/>
<text text-anchor="middle" x="300.5" y="-679.8" font-family="Times,serif" font-size="14.00">1</text>
</g>
<!-- captureIR -->
<g id="node11" class="node">
<title>captureIR</title>
<path fill="none" stroke="black" d="M396.69,-480C396.69,-480 349.31,-480 349.31,-480 343.31,-480 337.31,-474 337.31,-468 337.31,-468 337.31,-456 337.31,-456 337.31,-450 343.31,-444 349.31,-444 349.31,-444 396.69,-444 396.69,-444 402.69,-444 408.69,-450 408.69,-456 408.69,-456 408.69,-468 408.69,-468 408.69,-474 402.69,-480 396.69,-480"/>
<text text-anchor="middle" x="373" y="-457.8" font-family="Times,serif" font-size="14.00">captureIR</text>
</g>
<!-- selectIR&#45;&gt;captureIR -->
<g id="edge8" class="edge">
<title>selectIR&#45;&gt;captureIR</title>
<path fill="none" stroke="black" d="M324.85,-532.65C333.56,-520.05 345.55,-502.72 355.38,-488.5"/>
<polygon fill="black" stroke="black" points="358.36,-490.33 361.17,-480.11 352.61,-486.35 358.36,-490.33"/>
<text text-anchor="middle" x="351.5" y="-502.2" font-family="Times,serif" font-size="14.00">0</text>
</g>
<!-- shiftIR -->
<g id="node12" class="node">
<title>shiftIR</title>
<path fill="none" stroke="black" d="M440.39,-391.2C440.39,-391.2 409.61,-391.2 409.61,-391.2 403.61,-391.2 397.61,-385.2 397.61,-379.2 397.61,-379.2 397.61,-367.2 397.61,-367.2 397.61,-361.2 403.61,-355.2 409.61,-355.2 409.61,-355.2 440.39,-355.2 440.39,-355.2 446.39,-355.2 452.39,-361.2 452.39,-367.2 452.39,-367.2 452.39,-379.2 452.39,-379.2 452.39,-385.2 446.39,-391.2 440.39,-391.2"/>
<text text-anchor="middle" x="425" y="-369" font-family="Times,serif" font-size="14.00">shiftIR</text>
</g>
<!-- captureIR&#45;&gt;shiftIR -->
<g id="edge9" class="edge">
<title>captureIR&#45;&gt;shiftIR</title>
<path fill="none" stroke="black" d="M383.27,-443.85C390.75,-431.37 401.01,-414.24 409.48,-400.1"/>
<polygon fill="black" stroke="black" points="412.61,-401.69 414.75,-391.31 406.61,-398.09 412.61,-401.69"/>
<text text-anchor="middle" x="406.5" y="-413.4" font-family="Times,serif" font-size="14.00">0</text>
</g>
<!-- exit1IR -->
<g id="node13" class="node">
<title>exit1IR</title>
<path fill="none" stroke="black" d="M401.99,-302.4C401.99,-302.4 368.01,-302.4 368.01,-302.4 362.01,-302.4 356.01,-296.4 356.01,-290.4 356.01,-290.4 356.01,-278.4 356.01,-278.4 356.01,-272.4 362.01,-266.4 368.01,-266.4 368.01,-266.4 401.99,-266.4 401.99,-266.4 407.99,-266.4 413.99,-272.4 413.99,-278.4 413.99,-278.4 413.99,-290.4 413.99,-290.4 413.99,-296.4 407.99,-302.4 401.99,-302.4"/>
<text text-anchor="middle" x="385" y="-280.2" font-family="Times,serif" font-size="14.00">exit1IR</text>
</g>
<!-- captureIR&#45;&gt;exit1IR -->
<g id="edge22" class="edge">
<title>captureIR&#45;&gt;exit1IR</title>
<path fill="none" stroke="black" d="M374.17,-443.84C376.26,-413.29 380.64,-349.23 383.14,-312.61"/>
<polygon fill="black" stroke="black" points="386.63,-312.84 383.82,-302.63 379.65,-312.36 386.63,-312.84"/>
<text text-anchor="middle" x="383.5" y="-369" font-family="Times,serif" font-size="14.00">1</text>
</g>
<!-- shiftIR&#45;&gt;exit1IR -->
<g id="edge10" class="edge">
<title>shiftIR&#45;&gt;exit1IR</title>
<path fill="none" stroke="black" d="M417.1,-355.05C411.4,-342.69 403.6,-325.77 397.12,-311.7"/>
<polygon fill="black" stroke="black" points="400.25,-310.13 392.89,-302.51 393.89,-313.06 400.25,-310.13"/>
<text text-anchor="middle" x="411.5" y="-324.6" font-family="Times,serif" font-size="14.00">1</text>
</g>
<!-- pauseIR -->
<g id="node14" class="node">
<title>pauseIR</title>
<path fill="none" stroke="black" d="M415.88,-213.6C415.88,-213.6 378.12,-213.6 378.12,-213.6 372.12,-213.6 366.12,-207.6 366.12,-201.6 366.12,-201.6 366.12,-189.6 366.12,-189.6 366.12,-183.6 372.12,-177.6 378.12,-177.6 378.12,-177.6 415.88,-177.6 415.88,-177.6 421.88,-177.6 427.88,-183.6 427.88,-189.6 427.88,-189.6 427.88,-201.6 427.88,-201.6 427.88,-207.6 421.88,-213.6 415.88,-213.6"/>
<text text-anchor="middle" x="397" y="-191.4" font-family="Times,serif" font-size="14.00">pauseIR</text>
</g>
<!-- exit1IR&#45;&gt;pauseIR -->
<g id="edge11" class="edge">
<title>exit1IR&#45;&gt;pauseIR</title>
<path fill="none" stroke="black" d="M387.37,-266.25C389.05,-254.12 391.33,-237.62 393.25,-223.72"/>
<polygon fill="black" stroke="black" points="396.73,-224.1 394.63,-213.71 389.8,-223.14 396.73,-224.1"/>
<text text-anchor="middle" x="395.5" y="-235.8" font-family="Times,serif" font-size="14.00">0</text>
</g>
<!-- updateIR -->
<g id="node16" class="node">
<title>updateIR</title>
<path fill="none" stroke="black" d="M340.82,-36C340.82,-36 297.18,-36 297.18,-36 291.18,-36 285.18,-30 285.18,-24 285.18,-24 285.18,-12 285.18,-12 285.18,-6 291.18,0 297.18,0 297.18,0 340.82,0 340.82,0 346.82,0 352.82,-6 352.82,-12 352.82,-12 352.82,-24 352.82,-24 352.82,-30 346.82,-36 340.82,-36"/>
<text text-anchor="middle" x="319" y="-13.8" font-family="Times,serif" font-size="14.00">updateIR</text>
</g>
<!-- exit1IR&#45;&gt;updateIR -->
<g id="edge23" class="edge">
<title>exit1IR&#45;&gt;updateIR</title>
<path fill="none" stroke="black" d="M377.05,-266.22C370.86,-252.29 362.44,-232.01 357,-213.6 339.74,-155.16 328.18,-84.49 322.69,-46.45"/>
<polygon fill="black" stroke="black" points="326.1,-45.59 321.24,-36.18 319.17,-46.57 326.1,-45.59"/>
<text text-anchor="middle" x="346.5" y="-147" font-family="Times,serif" font-size="14.00">1</text>
</g>
<!-- exit2IR -->
<g id="node15" class="node">
<title>exit2IR</title>
<path fill="none" stroke="black" d="M413.99,-124.8C413.99,-124.8 380.01,-124.8 380.01,-124.8 374.01,-124.8 368.01,-118.8 368.01,-112.8 368.01,-112.8 368.01,-100.8 368.01,-100.8 368.01,-94.8 374.01,-88.8 380.01,-88.8 380.01,-88.8 413.99,-88.8 413.99,-88.8 419.99,-88.8 425.99,-94.8 425.99,-100.8 425.99,-100.8 425.99,-112.8 425.99,-112.8 425.99,-118.8 419.99,-124.8 413.99,-124.8"/>
<text text-anchor="middle" x="397" y="-102.6" font-family="Times,serif" font-size="14.00">exit2IR</text>
</g>
<!-- pauseIR&#45;&gt;exit2IR -->
<g id="edge12" class="edge">
<title>pauseIR&#45;&gt;exit2IR</title>
<path fill="none" stroke="black" d="M397,-177.45C397,-165.32 397,-148.82 397,-134.92"/>
<polygon fill="black" stroke="black" points="400.5,-134.91 397,-124.91 393.5,-134.91 400.5,-134.91"/>
<text text-anchor="middle" x="400.5" y="-147" font-family="Times,serif" font-size="14.00">1</text>
</g>
<!-- exit2IR&#45;&gt;shiftIR -->
<g id="edge24" class="edge">
<title>exit2IR&#45;&gt;shiftIR</title>
<path fill="none" stroke="black" d="M410.3,-125.03C419.82,-138.51 431.83,-158.16 437,-177.6 452.52,-235.9 440.61,-307.36 431.94,-345.38"/>
<polygon fill="black" stroke="black" points="428.52,-344.64 429.61,-355.18 435.33,-346.27 428.52,-344.64"/>
<text text-anchor="middle" x="447.5" y="-235.8" font-family="Times,serif" font-size="14.00">0</text>
</g>
<!-- exit2IR&#45;&gt;updateIR -->
<g id="edge13" class="edge">
<title>exit2IR&#45;&gt;updateIR</title>
<path fill="none" stroke="black" d="M382.17,-88.38C373.48,-78.26 362.23,-65.31 352,-54 348.95,-50.64 345.71,-47.12 342.5,-43.67"/>
<polygon fill="black" stroke="black" points="344.99,-41.21 335.59,-36.32 339.89,-46 344.99,-41.21"/>
<text text-anchor="middle" x="368.5" y="-58.2" font-family="Times,serif" font-size="14.00">1</text>
</g>
<!-- updateIR&#45;&gt;runTest -->
<g id="edge25" class="edge">
<title>updateIR&#45;&gt;runTest</title>
<path fill="none" stroke="black" d="M285.16,-21.02C203.06,-26.85 0,-47.18 0,-105.8 0,-640.6 0,-640.6 0,-640.6 0,-680.5 123.51,-708.69 188.72,-720.79"/>
<polygon fill="black" stroke="black" points="188.2,-724.25 198.66,-722.59 189.45,-717.36 188.2,-724.25"/>
<text text-anchor="middle" x="3.5" y="-369" font-family="Times,serif" font-size="14.00">0</text>
</g>
<!-- updateIR&#45;&gt;selectIR -->
<g id="edge26" class="edge">
<title>updateIR&#45;&gt;selectIR</title>
<path fill="none" stroke="black" d="M312.99,-36.05C307.42,-53.38 300,-81.12 300,-105.8 300,-463 300,-463 300,-463 300,-483.19 303.48,-505.73 306.84,-522.78"/>
<polygon fill="black" stroke="black" points="303.43,-523.54 308.89,-532.62 310.28,-522.12 303.43,-523.54"/>
<text text-anchor="middle" x="303.5" y="-280.2" font-family="Times,serif" font-size="14.00">1</text>
</g>
</g>
</svg>
